<?xml version="1.0" encoding="UTF-8"?>
<svg xmlns="http://www.w3.org/2000/svg" xmlns:xlink="http://www.w3.org/1999/xlink" width="375pt" height="374.999991pt" viewBox="0 0 375 374.999991" version="1.2">
<defs>
<filter id="alpha" filterUnits="objectBoundingBox" x="0%" y="0%" width="100%" height="100%">
  <feColorMatrix type="matrix" in="SourceGraphic" values="0 0 0 0 1 0 0 0 0 1 0 0 0 0 1 0 0 0 1 0"/>
</filter>
<mask id="mask0">
  <g filter="url(#alpha)">
<rect x="0" y="0" width="375" height="374.999991" style="fill:rgb(0%,0%,0%);fill-opacity:0.6;stroke:none;"/>
  </g>
</mask>
<clipPath id="clip2">
  <path d="M 0.429688 0.765625 L 308.679688 0.765625 L 308.679688 309.015625 L 0.429688 309.015625 Z M 0.429688 0.765625 "/>
</clipPath>
<clipPath id="clip1">
  <rect x="0" y="0" width="309" height="310"/>
</clipPath>
<g id="surface5" clip-path="url(#clip1)">
<g clip-path="url(#clip2)" clip-rule="nonzero">
<path style=" stroke:none;fill-rule:nonzero;fill:rgb(93.728638%,17.649841%,21.569824%);fill-opacity:1;" d="M 308.960938 155.023438 C 308.960938 161.679688 300.578125 167.703125 299.742188 174.128906 C 298.882812 180.707031 305.417969 188.695312 303.742188 194.976562 C 302.046875 201.359375 292.382812 205.007812 289.886719 211.019531 C 287.355469 217.125 291.585938 226.535156 288.320312 232.171875 C 285.027344 237.875 274.746094 238.902344 270.753906 244.085938 C 266.757812 249.292969 268.414062 259.484375 263.777344 264.117188 C 259.140625 268.746094 248.953125 267.097656 243.746094 271.109375 C 238.554688 275.09375 237.527344 285.359375 231.84375 288.652344 C 226.1875 291.917969 216.773438 287.691406 210.6875 290.21875 C 204.667969 292.710938 201.011719 302.386719 194.621094 304.074219 C 188.351562 305.757812 180.367188 299.230469 173.789062 300.082031 C 167.375 300.921875 161.335938 309.304688 154.691406 309.304688 C 148.035156 309.304688 142.007812 300.921875 135.582031 300.082031 C 129.019531 299.230469 121.023438 305.757812 114.75 304.074219 C 108.367188 302.386719 104.710938 292.710938 98.691406 290.21875 C 92.609375 287.691406 83.191406 291.917969 77.539062 288.652344 C 71.839844 285.359375 70.816406 275.09375 65.632812 271.109375 C 60.421875 267.097656 50.230469 268.746094 45.597656 264.117188 C 40.960938 259.484375 42.613281 249.292969 38.625 244.085938 C 34.632812 238.902344 24.351562 237.875 21.0625 232.171875 C 17.792969 226.535156 22.023438 217.113281 19.496094 211.019531 C 17.003906 205.007812 7.339844 201.34375 5.636719 194.976562 C 3.957031 188.695312 10.492188 180.707031 9.636719 174.128906 C 8.800781 167.703125 0.414062 161.679688 0.414062 155.023438 C 0.414062 148.375 8.800781 142.34375 9.636719 135.921875 C 10.492188 129.351562 3.957031 121.363281 5.636719 115.089844 C 7.339844 108.707031 17.003906 105.050781 19.496094 99.027344 C 22.023438 92.941406 17.792969 83.527344 21.0625 77.875 C 24.351562 72.183594 34.632812 71.160156 38.625 65.96875 C 42.625 60.769531 40.960938 50.578125 45.597656 45.941406 C 50.230469 41.308594 60.429688 42.957031 65.632812 38.957031 C 70.816406 34.976562 71.84375 24.691406 77.546875 21.402344 C 83.191406 18.121094 92.609375 22.351562 98.691406 19.835938 C 104.71875 17.34375 108.367188 7.679688 114.75 5.96875 C 121.027344 4.296875 129.019531 10.832031 135.582031 9.972656 C 142.007812 9.125 148.035156 0.75 154.691406 0.75 C 161.335938 0.75 167.375 9.125 173.789062 9.972656 C 180.367188 10.832031 188.359375 4.296875 194.628906 5.96875 C 201.011719 7.679688 204.667969 17.34375 210.6875 19.835938 C 216.773438 22.351562 226.1875 18.121094 231.84375 21.402344 C 237.527344 24.691406 238.554688 34.976562 243.746094 38.957031 C 248.953125 42.957031 259.140625 41.308594 263.777344 45.941406 C 268.414062 50.578125 266.757812 60.769531 270.753906 65.96875 C 274.746094 71.164062 285.027344 72.183594 288.320312 77.875 C 291.585938 83.527344 287.355469 92.941406 289.886719 99.027344 C 292.382812 105.050781 302.035156 108.707031 303.742188 115.089844 C 305.417969 121.363281 298.882812 129.351562 299.742188 135.921875 C 300.578125 142.34375 308.960938 148.375 308.960938 155.023438 "/>
</g>
<path style=" stroke:none;fill-rule:nonzero;fill:rgb(1.959229%,25.878906%,36.079407%);fill-opacity:1;" d="M 291.484375 155.03125 C 291.484375 230.589844 230.242188 291.832031 154.691406 291.832031 C 79.136719 291.832031 17.886719 230.589844 17.886719 155.03125 C 17.886719 79.476562 79.136719 18.226562 154.691406 18.226562 C 230.242188 18.226562 291.484375 79.476562 291.484375 155.03125 "/>
<path style=" stroke:none;fill-rule:nonzero;fill:rgb(100%,100%,100%);fill-opacity:1;" d="M 149.703125 30.921875 C 148.902344 30.921875 148.234375 30.292969 148.207031 29.480469 C 148.179688 28.652344 148.816406 27.960938 149.644531 27.921875 C 151.300781 27.859375 153 27.828125 154.691406 27.828125 C 155.511719 27.828125 156.179688 28.5 156.179688 29.324219 C 156.179688 30.152344 155.511719 30.820312 154.691406 30.820312 C 153.039062 30.820312 151.382812 30.855469 149.757812 30.921875 Z M 166.769531 31.398438 L 166.625 31.386719 C 164.992188 31.230469 163.339844 31.109375 161.71875 31.023438 C 160.898438 30.96875 160.257812 30.269531 160.308594 29.445312 C 160.347656 28.617188 161.039062 28.003906 161.882812 28.035156 C 163.546875 28.117188 165.238281 28.253906 166.910156 28.410156 C 167.734375 28.492188 168.335938 29.226562 168.257812 30.035156 C 168.1875 30.820312 167.535156 31.398438 166.769531 31.398438 Z M 136.796875 32.085938 C 136.066406 32.085938 135.425781 31.542969 135.316406 30.800781 C 135.203125 29.988281 135.769531 29.234375 136.582031 29.105469 C 138.242188 28.875 139.925781 28.671875 141.59375 28.492188 C 142.421875 28.414062 143.152344 29.007812 143.238281 29.832031 C 143.320312 30.660156 142.722656 31.386719 141.898438 31.476562 C 140.269531 31.632812 138.621094 31.839844 137.011719 32.070312 Z M 179.585938 33.289062 C 179.492188 33.289062 179.394531 33.28125 179.292969 33.261719 C 177.6875 32.933594 176.058594 32.640625 174.449219 32.382812 C 173.628906 32.265625 173.078125 31.484375 173.207031 30.675781 C 173.328125 29.855469 174.113281 29.296875 174.917969 29.433594 C 176.570312 29.695312 178.238281 29.996094 179.882812 30.324219 C 180.695312 30.484375 181.21875 31.277344 181.054688 32.085938 C 180.921875 32.800781 180.28125 33.289062 179.585938 33.289062 Z M 124.082031 34.574219 C 123.410156 34.574219 122.804688 34.121094 122.632812 33.441406 C 122.429688 32.640625 122.917969 31.835938 123.722656 31.625 C 125.335938 31.226562 126.996094 30.84375 128.632812 30.5 C 129.445312 30.332031 130.242188 30.847656 130.40625 31.660156 C 130.578125 32.476562 130.058594 33.261719 129.25 33.433594 C 127.644531 33.769531 126.027344 34.136719 124.449219 34.527344 C 124.324219 34.5625 124.203125 34.574219 124.082031 34.574219 Z M 192.140625 36.492188 C 191.992188 36.492188 191.84375 36.472656 191.695312 36.425781 C 190.136719 35.9375 188.546875 35.488281 186.960938 35.058594 C 186.167969 34.847656 185.699219 34.027344 185.90625 33.222656 C 186.121094 32.421875 186.945312 31.960938 187.742188 32.171875 C 189.363281 32.601562 190.992188 33.074219 192.585938 33.570312 C 193.371094 33.816406 193.8125 34.652344 193.570312 35.449219 C 193.363281 36.09375 192.78125 36.492188 192.140625 36.492188 Z M 111.679688 38.371094 C 111.070312 38.371094 110.5 37.996094 110.277344 37.386719 C 109.992188 36.613281 110.394531 35.757812 111.171875 35.464844 C 112.746094 34.898438 114.355469 34.347656 115.953125 33.839844 C 116.75 33.582031 117.585938 34.019531 117.835938 34.808594 C 118.085938 35.59375 117.65625 36.4375 116.871094 36.6875 C 115.300781 37.191406 113.730469 37.722656 112.195312 38.28125 C 112.03125 38.347656 111.851562 38.371094 111.679688 38.371094 Z M 204.277344 40.984375 C 204.085938 40.984375 203.878906 40.953125 203.6875 40.863281 C 202.195312 40.21875 200.660156 39.585938 199.136719 39.011719 C 198.363281 38.714844 197.980469 37.851562 198.277344 37.082031 C 198.582031 36.3125 199.445312 35.917969 200.210938 36.21875 C 201.765625 36.816406 203.335938 37.449219 204.871094 38.121094 C 205.636719 38.441406 205.980469 39.316406 205.660156 40.082031 C 205.410156 40.644531 204.859375 40.984375 204.277344 40.984375 Z M 99.734375 43.441406 C 99.179688 43.441406 98.648438 43.128906 98.394531 42.601562 C 98.027344 41.855469 98.332031 40.957031 99.082031 40.597656 C 100.585938 39.867188 102.128906 39.148438 103.664062 38.484375 C 104.421875 38.144531 105.300781 38.496094 105.636719 39.25 C 105.972656 40.007812 105.625 40.882812 104.871094 41.214844 C 103.367188 41.878906 101.863281 42.566406 100.390625 43.289062 C 100.179688 43.394531 99.957031 43.441406 99.734375 43.441406 Z M 215.878906 46.695312 C 215.640625 46.695312 215.382812 46.640625 215.15625 46.511719 C 213.726562 45.71875 212.265625 44.9375 210.8125 44.207031 C 210.082031 43.828125 209.789062 42.921875 210.160156 42.183594 C 210.535156 41.449219 211.4375 41.160156 212.171875 41.535156 C 213.65625 42.285156 215.152344 43.078125 216.617188 43.90625 C 217.335938 44.296875 217.589844 45.214844 217.191406 45.941406 C 216.917969 46.433594 216.40625 46.695312 215.878906 46.695312 Z M 88.375 49.722656 C 87.878906 49.722656 87.386719 49.464844 87.109375 49.007812 C 86.675781 48.308594 86.894531 47.386719 87.585938 46.953125 C 89.023438 46.054688 90.488281 45.191406 91.929688 44.363281 C 92.648438 43.957031 93.5625 44.210938 93.964844 44.929688 C 94.386719 45.648438 94.128906 46.558594 93.402344 46.964844 C 92.003906 47.769531 90.570312 48.621094 89.171875 49.496094 C 88.921875 49.636719 88.648438 49.722656 88.375 49.722656 Z M 226.851562 53.589844 C 226.554688 53.589844 226.246094 53.496094 225.992188 53.3125 C 224.652344 52.378906 223.273438 51.453125 221.910156 50.566406 C 221.210938 50.113281 221.007812 49.195312 221.460938 48.492188 C 221.910156 47.804688 222.835938 47.609375 223.527344 48.054688 C 224.929688 48.960938 226.339844 49.910156 227.710938 50.867188 C 228.378906 51.34375 228.550781 52.273438 228.078125 52.957031 C 227.785156 53.363281 227.320312 53.589844 226.851562 53.589844 Z M 77.734375 57.121094 C 77.289062 57.121094 76.851562 56.917969 76.554688 56.542969 C 76.046875 55.890625 76.167969 54.945312 76.820312 54.441406 C 78.144531 53.410156 79.515625 52.390625 80.867188 51.429688 C 81.542969 50.945312 82.480469 51.101562 82.957031 51.78125 C 83.4375 52.453125 83.277344 53.386719 82.605469 53.863281 C 81.28125 54.8125 79.953125 55.804688 78.652344 56.808594 C 78.382812 57.019531 78.058594 57.121094 77.734375 57.121094 Z M 237.054688 61.574219 C 236.699219 61.574219 236.347656 61.4375 236.074219 61.199219 C 234.835938 60.117188 233.566406 59.058594 232.292969 58.042969 C 231.644531 57.527344 231.542969 56.589844 232.0625 55.945312 C 232.570312 55.292969 233.515625 55.195312 234.15625 55.710938 C 235.460938 56.746094 236.761719 57.839844 238.035156 58.9375 C 238.652344 59.480469 238.722656 60.425781 238.183594 61.050781 C 237.890625 61.386719 237.46875 61.574219 237.054688 61.574219 Z M 67.910156 65.582031 C 67.523438 65.582031 67.121094 65.425781 66.828125 65.117188 C 66.261719 64.511719 66.289062 63.570312 66.878906 63.003906 C 68.085938 61.851562 69.34375 60.699219 70.597656 59.589844 C 71.21875 59.046875 72.164062 59.101562 72.710938 59.71875 C 73.257812 60.34375 73.199219 61.292969 72.582031 61.832031 C 71.347656 62.914062 70.132812 64.039062 68.945312 65.164062 C 68.65625 65.449219 68.285156 65.582031 67.910156 65.582031 Z M 246.390625 70.550781 C 245.992188 70.550781 245.59375 70.394531 245.296875 70.070312 C 244.183594 68.894531 243.027344 67.707031 241.851562 66.554688 C 241.269531 65.96875 241.265625 65.027344 241.84375 64.429688 C 242.417969 63.847656 243.363281 63.835938 243.953125 64.421875 C 245.160156 65.605469 246.34375 66.8125 247.488281 68.03125 C 248.050781 68.632812 248.019531 69.578125 247.410156 70.144531 C 247.121094 70.414062 246.757812 70.550781 246.390625 70.550781 Z M 59.015625 74.992188 C 58.667969 74.992188 58.324219 74.875 58.039062 74.632812 C 57.410156 74.097656 57.335938 73.15625 57.875 72.519531 C 58.964844 71.238281 60.097656 69.976562 61.222656 68.753906 C 61.78125 68.152344 62.726562 68.113281 63.335938 68.675781 C 63.945312 69.222656 63.984375 70.171875 63.417969 70.78125 C 62.316406 71.972656 61.222656 73.214844 60.152344 74.46875 C 59.855469 74.8125 59.4375 74.992188 59.015625 74.992188 Z M 254.761719 80.449219 C 254.316406 80.449219 253.867188 80.242188 253.574219 79.859375 C 252.582031 78.550781 251.554688 77.253906 250.503906 75.988281 C 249.976562 75.351562 250.074219 74.40625 250.710938 73.886719 C 251.351562 73.359375 252.289062 73.449219 252.8125 74.097656 C 253.882812 75.375 254.9375 76.714844 255.941406 78.039062 C 256.457031 78.703125 256.320312 79.640625 255.667969 80.144531 C 255.394531 80.347656 255.082031 80.449219 254.761719 80.449219 Z M 51.125 85.265625 C 50.828125 85.265625 50.535156 85.183594 50.273438 85.003906 C 49.59375 84.535156 49.421875 83.597656 49.890625 82.921875 C 50.84375 81.539062 51.832031 80.167969 52.835938 78.820312 C 53.332031 78.167969 54.265625 78.035156 54.929688 78.527344 C 55.585938 79.023438 55.722656 79.964844 55.230469 80.625 C 54.246094 81.929688 53.285156 83.277344 52.355469 84.621094 C 52.0625 85.039062 51.597656 85.265625 51.125 85.265625 Z M 262.078125 91.152344 C 261.570312 91.152344 261.082031 90.898438 260.796875 90.4375 C 259.949219 89.050781 259.066406 87.652344 258.144531 86.277344 C 257.6875 85.589844 257.878906 84.660156 258.566406 84.207031 C 259.25 83.746094 260.175781 83.925781 260.632812 84.621094 C 261.574219 86.03125 262.492188 87.464844 263.351562 88.878906 C 263.785156 89.585938 263.558594 90.507812 262.855469 90.933594 C 262.609375 91.085938 262.34375 91.152344 262.078125 91.152344 Z M 44.335938 96.285156 C 44.09375 96.285156 43.84375 96.222656 43.617188 96.105469 C 42.886719 95.707031 42.625 94.796875 43.023438 94.070312 C 43.824219 92.597656 44.671875 91.132812 45.523438 89.703125 C 45.953125 88.988281 46.871094 88.761719 47.582031 89.191406 C 48.285156 89.609375 48.519531 90.535156 48.097656 91.242188 C 47.253906 92.636719 46.433594 94.070312 45.644531 95.511719 C 45.375 96.003906 44.863281 96.285156 44.335938 96.285156 Z M 268.253906 102.566406 C 267.695312 102.566406 267.160156 102.25 266.902344 101.714844 C 266.1875 100.222656 265.445312 98.738281 264.695312 97.296875 C 264.300781 96.570312 264.585938 95.667969 265.320312 95.277344 C 266.046875 94.890625 266.957031 95.175781 267.335938 95.902344 C 268.109375 97.367188 268.875 98.894531 269.601562 100.421875 C 269.957031 101.171875 269.640625 102.054688 268.890625 102.414062 C 268.683594 102.511719 268.46875 102.566406 268.253906 102.566406 Z M 38.722656 107.941406 C 38.53125 107.941406 38.328125 107.902344 38.140625 107.824219 C 37.386719 107.503906 37.019531 106.628906 37.335938 105.867188 C 37.984375 104.332031 38.671875 102.785156 39.378906 101.257812 C 39.730469 100.511719 40.621094 100.191406 41.371094 100.539062 C 42.109375 100.890625 42.445312 101.78125 42.085938 102.53125 C 41.398438 104.015625 40.722656 105.523438 40.101562 107.019531 C 39.863281 107.59375 39.304688 107.941406 38.722656 107.941406 Z M 273.210938 114.558594 C 272.59375 114.558594 272.019531 114.167969 271.800781 113.558594 C 271.253906 112.015625 270.667969 110.449219 270.0625 108.945312 C 269.753906 108.175781 270.132812 107.300781 270.894531 106.996094 C 271.667969 106.683594 272.53125 107.066406 272.839844 107.835938 C 273.460938 109.382812 274.058594 110.976562 274.621094 112.5625 C 274.894531 113.34375 274.496094 114.203125 273.71875 114.476562 C 273.539062 114.535156 273.378906 114.558594 273.210938 114.558594 Z M 34.34375 120.117188 C 34.195312 120.117188 34.046875 120.101562 33.910156 120.058594 C 33.117188 119.816406 32.667969 118.988281 32.914062 118.1875 C 33.394531 116.585938 33.921875 114.972656 34.464844 113.398438 C 34.730469 112.609375 35.582031 112.195312 36.363281 112.472656 C 37.148438 112.734375 37.5625 113.589844 37.289062 114.371094 C 36.765625 115.90625 36.246094 117.488281 35.769531 119.058594 C 35.578125 119.707031 34.984375 120.117188 34.34375 120.117188 Z M 276.898438 126.980469 C 276.21875 126.980469 275.605469 126.519531 275.441406 125.828125 C 275.058594 124.25 274.644531 122.644531 274.191406 121.074219 C 273.96875 120.28125 274.429688 119.449219 275.222656 119.222656 C 276.015625 119 276.851562 119.457031 277.074219 120.257812 C 277.527344 121.867188 277.957031 123.507812 278.355469 125.132812 C 278.546875 125.941406 278.054688 126.746094 277.25 126.949219 C 277.132812 126.964844 277.015625 126.980469 276.898438 126.980469 Z M 31.246094 132.699219 C 31.148438 132.699219 31.050781 132.695312 30.960938 132.671875 C 30.148438 132.519531 29.617188 131.730469 29.773438 130.925781 C 30.085938 129.273438 30.4375 127.617188 30.820312 125.988281 C 31.011719 125.1875 31.816406 124.6875 32.617188 124.875 C 33.425781 125.0625 33.921875 125.863281 33.734375 126.667969 C 33.363281 128.261719 33.023438 129.882812 32.714844 131.488281 C 32.574219 132.203125 31.945312 132.699219 31.246094 132.699219 Z M 279.273438 139.714844 C 278.535156 139.714844 277.890625 139.175781 277.796875 138.417969 C 277.578125 136.8125 277.324219 135.171875 277.046875 133.546875 C 276.898438 132.738281 277.445312 131.957031 278.261719 131.824219 C 279.074219 131.667969 279.847656 132.226562 279.988281 133.039062 C 280.277344 134.699219 280.539062 136.375 280.757812 138.019531 C 280.867188 138.84375 280.289062 139.597656 279.472656 139.703125 Z M 29.460938 145.535156 L 29.332031 145.527344 C 28.511719 145.460938 27.902344 144.734375 27.972656 143.90625 C 28.117188 142.246094 28.292969 140.554688 28.503906 138.894531 C 28.609375 138.066406 29.367188 137.496094 30.179688 137.59375 C 30.996094 137.703125 31.574219 138.445312 31.472656 139.265625 C 31.269531 140.890625 31.09375 142.535156 30.949219 144.167969 C 30.882812 144.949219 30.234375 145.535156 29.460938 145.535156 Z M 280.324219 152.636719 C 279.523438 152.636719 278.859375 151.992188 278.832031 151.183594 C 278.785156 149.535156 278.699219 147.875 278.585938 146.265625 C 278.527344 145.441406 279.152344 144.726562 279.976562 144.667969 C 280.789062 144.609375 281.515625 145.222656 281.574219 146.058594 C 281.683594 147.707031 281.773438 149.398438 281.824219 151.089844 C 281.847656 151.917969 281.203125 152.609375 280.375 152.636719 Z M 29.003906 158.480469 C 28.183594 158.480469 27.515625 157.828125 27.507812 157.011719 C 27.496094 156.347656 27.496094 155.6875 27.496094 155.03125 C 27.496094 154.003906 27.503906 152.984375 27.53125 151.96875 C 27.542969 151.148438 28.210938 150.503906 29.027344 150.503906 L 29.058594 150.503906 C 29.882812 150.523438 30.539062 151.210938 30.515625 152.035156 C 30.5 153.027344 30.484375 154.019531 30.484375 155.03125 C 30.484375 155.679688 30.484375 156.320312 30.5 156.96875 C 30.507812 157.785156 29.855469 158.472656 29.027344 158.480469 Z M 280.070312 165.597656 L 279.964844 165.589844 C 279.144531 165.535156 278.519531 164.808594 278.574219 163.984375 C 278.691406 162.347656 278.785156 160.707031 278.832031 159.066406 C 278.855469 158.261719 279.523438 157.621094 280.324219 157.621094 L 280.367188 157.621094 C 281.199219 157.644531 281.847656 158.335938 281.820312 159.164062 C 281.765625 160.832031 281.679688 162.535156 281.5625 164.210938 C 281.503906 164.992188 280.84375 165.597656 280.070312 165.597656 Z M 29.859375 171.410156 C 29.105469 171.410156 28.464844 170.855469 28.378906 170.09375 C 28.175781 168.417969 28.007812 166.734375 27.886719 165.066406 C 27.820312 164.25 28.429688 163.53125 29.257812 163.460938 C 30.070312 163.386719 30.796875 164.007812 30.867188 164.847656 C 30.992188 166.453125 31.15625 168.101562 31.34375 169.734375 C 31.441406 170.566406 30.855469 171.300781 30.035156 171.40625 Z M 278.484375 178.449219 C 278.402344 178.449219 278.308594 178.449219 278.222656 178.425781 C 277.414062 178.28125 276.867188 177.507812 277.011719 176.6875 C 277.296875 175.085938 277.546875 173.449219 277.773438 171.828125 C 277.875 171.015625 278.632812 170.433594 279.453125 170.546875 C 280.265625 170.652344 280.84375 171.410156 280.726562 172.226562 C 280.507812 173.894531 280.242188 175.5625 279.960938 177.214844 C 279.824219 177.945312 279.199219 178.449219 278.484375 178.449219 Z M 32.042969 184.183594 C 31.351562 184.183594 30.734375 183.699219 30.578125 183.023438 C 30.210938 181.382812 29.871094 179.714844 29.570312 178.066406 C 29.421875 177.253906 29.964844 176.480469 30.773438 176.339844 C 31.582031 176.179688 32.363281 176.722656 32.519531 177.535156 C 32.808594 179.140625 33.144531 180.765625 33.503906 182.371094 C 33.679688 183.167969 33.175781 183.964844 32.363281 184.144531 C 32.261719 184.175781 32.148438 184.183594 32.042969 184.183594 Z M 275.585938 191.082031 C 275.445312 191.082031 275.308594 191.058594 275.167969 191.007812 C 274.371094 190.792969 273.910156 189.964844 274.144531 189.171875 C 274.589844 187.605469 275.011719 186 275.394531 184.402344 C 275.589844 183.609375 276.402344 183.117188 277.203125 183.308594 C 278.007812 183.492188 278.496094 184.308594 278.308594 185.109375 C 277.914062 186.738281 277.480469 188.382812 277.015625 189.992188 C 276.828125 190.648438 276.230469 191.082031 275.585938 191.082031 Z M 35.527344 196.671875 C 34.90625 196.671875 34.320312 196.269531 34.109375 195.640625 C 33.578125 194.0625 33.070312 192.449219 32.597656 190.832031 C 32.363281 190.039062 32.820312 189.203125 33.613281 188.972656 C 34.402344 188.742188 35.242188 189.199219 35.472656 189.992188 C 35.9375 191.570312 36.429688 193.152344 36.949219 194.691406 C 37.210938 195.472656 36.792969 196.324219 36.003906 196.585938 C 35.847656 196.636719 35.6875 196.671875 35.527344 196.671875 Z M 271.386719 203.339844 C 271.199219 203.339844 271.011719 203.300781 270.816406 203.230469 C 270.0625 202.917969 269.6875 202.054688 270 201.289062 C 270.609375 199.765625 271.195312 198.21875 271.734375 196.671875 C 272.019531 195.902344 272.871094 195.484375 273.648438 195.761719 C 274.429688 196.042969 274.832031 196.898438 274.550781 197.671875 C 274 199.261719 273.390625 200.847656 272.773438 202.398438 C 272.53125 202.980469 271.980469 203.339844 271.386719 203.339844 Z M 40.308594 208.734375 C 39.738281 208.734375 39.199219 208.402344 38.949219 207.855469 C 38.25 206.335938 37.570312 204.765625 36.941406 203.21875 C 36.628906 202.445312 36.992188 201.585938 37.757812 201.265625 C 38.519531 200.945312 39.394531 201.324219 39.707031 202.085938 C 40.328125 203.605469 40.988281 205.117188 41.664062 206.617188 C 42.015625 207.363281 41.675781 208.257812 40.929688 208.597656 C 40.730469 208.691406 40.519531 208.734375 40.308594 208.734375 Z M 265.945312 215.074219 C 265.714844 215.074219 265.472656 215.019531 265.246094 214.902344 C 264.523438 214.523438 264.238281 213.609375 264.628906 212.882812 C 265.382812 211.441406 266.121094 209.972656 266.839844 208.496094 C 267.1875 207.734375 268.078125 207.433594 268.828125 207.785156 C 269.574219 208.144531 269.886719 209.03125 269.539062 209.773438 C 268.808594 211.292969 268.042969 212.8125 267.273438 214.269531 C 267.007812 214.777344 266.480469 215.074219 265.945312 215.074219 Z M 46.304688 220.234375 C 45.796875 220.234375 45.296875 219.964844 45.015625 219.503906 C 44.160156 218.054688 43.324219 216.574219 42.546875 215.105469 C 42.152344 214.363281 42.425781 213.464844 43.148438 213.078125 C 43.878906 212.675781 44.785156 212.953125 45.171875 213.6875 C 45.945312 215.121094 46.757812 216.558594 47.589844 217.976562 C 48.011719 218.691406 47.777344 219.613281 47.066406 220.027344 C 46.824219 220.171875 46.566406 220.234375 46.304688 220.234375 Z M 259.332031 226.199219 C 259.042969 226.199219 258.757812 226.117188 258.496094 225.949219 C 257.808594 225.484375 257.625 224.550781 258.085938 223.867188 C 259.003906 222.5 259.886719 221.117188 260.734375 219.726562 C 261.167969 219.019531 262.082031 218.792969 262.785156 219.234375 C 263.496094 219.660156 263.714844 220.570312 263.285156 221.285156 C 262.421875 222.703125 261.507812 224.128906 260.578125 225.539062 C 260.289062 225.964844 259.816406 226.199219 259.332031 226.199219 Z M 53.453125 231.058594 C 52.996094 231.058594 52.542969 230.847656 52.25 230.449219 C 51.257812 229.101562 50.28125 227.722656 49.335938 226.332031 C 48.871094 225.640625 49.050781 224.710938 49.734375 224.238281 C 50.421875 223.78125 51.347656 223.964844 51.816406 224.648438 C 52.730469 226 53.6875 227.347656 54.660156 228.675781 C 55.152344 229.328125 55.007812 230.273438 54.34375 230.769531 C 54.074219 230.964844 53.765625 231.058594 53.453125 231.058594 Z M 251.597656 236.585938 C 251.261719 236.585938 250.921875 236.472656 250.648438 236.246094 C 250.007812 235.71875 249.921875 234.78125 250.445312 234.144531 C 251.496094 232.875 252.519531 231.566406 253.511719 230.277344 C 254.015625 229.625 254.949219 229.496094 255.605469 230.003906 C 256.261719 230.5 256.390625 231.445312 255.886719 232.09375 C 254.871094 233.421875 253.824219 234.753906 252.75 236.039062 C 252.457031 236.40625 252.027344 236.585938 251.597656 236.585938 Z M 61.671875 241.082031 C 61.265625 241.082031 60.863281 240.921875 60.5625 240.589844 C 59.4375 239.34375 58.3125 238.058594 57.25 236.796875 C 56.714844 236.15625 56.796875 235.214844 57.433594 234.6875 C 58.0625 234.152344 59.007812 234.222656 59.535156 234.867188 C 60.578125 236.113281 61.671875 237.359375 62.785156 238.574219 C 63.335938 239.191406 63.289062 240.140625 62.683594 240.695312 C 62.390625 240.957031 62.03125 241.082031 61.671875 241.082031 Z M 242.839844 246.136719 C 242.460938 246.136719 242.070312 245.980469 241.765625 245.6875 C 241.199219 245.097656 241.203125 244.148438 241.792969 243.574219 C 242.96875 242.410156 244.128906 241.226562 245.234375 240.046875 C 245.808594 239.445312 246.746094 239.414062 247.347656 239.984375 C 247.957031 240.550781 247.984375 241.496094 247.417969 242.097656 C 246.28125 243.300781 245.09375 244.515625 243.894531 245.710938 C 243.601562 245.996094 243.21875 246.136719 242.839844 246.136719 Z M 70.871094 250.207031 C 70.519531 250.207031 70.160156 250.082031 69.875 249.824219 C 68.636719 248.710938 67.390625 247.566406 66.1875 246.386719 C 65.589844 245.808594 65.578125 244.867188 66.152344 244.273438 C 66.730469 243.683594 67.675781 243.664062 68.265625 244.242188 C 69.445312 245.378906 70.660156 246.515625 71.871094 247.605469 C 72.484375 248.140625 72.539062 249.09375 71.988281 249.703125 C 71.695312 250.042969 71.28125 250.207031 70.871094 250.207031 Z M 233.148438 254.738281 C 232.707031 254.738281 232.277344 254.542969 231.980469 254.183594 C 231.464844 253.542969 231.570312 252.59375 232.214844 252.078125 C 233.488281 251.0625 234.757812 249.996094 236.007812 248.914062 C 236.621094 248.375 237.574219 248.445312 238.113281 249.074219 C 238.652344 249.699219 238.582031 250.644531 237.957031 251.179688 C 236.6875 252.28125 235.378906 253.371094 234.082031 254.410156 C 233.804688 254.632812 233.472656 254.738281 233.148438 254.738281 Z M 80.957031 258.347656 C 80.648438 258.347656 80.34375 258.242188 80.078125 258.050781 C 78.722656 257.078125 77.363281 256.054688 76.046875 255.015625 C 75.398438 254.511719 75.296875 253.566406 75.800781 252.914062 C 76.316406 252.257812 77.253906 252.15625 77.90625 252.660156 C 79.183594 253.675781 80.507812 254.671875 81.824219 255.632812 C 82.503906 256.121094 82.648438 257.046875 82.160156 257.722656 C 81.871094 258.125 81.414062 258.347656 80.957031 258.347656 Z M 222.621094 262.308594 C 222.132812 262.308594 221.640625 262.058594 221.359375 261.621094 C 220.917969 260.925781 221.113281 259.992188 221.808594 259.546875 C 223.175781 258.675781 224.558594 257.746094 225.902344 256.804688 C 226.578125 256.328125 227.515625 256.492188 227.988281 257.167969 C 228.464844 257.839844 228.296875 258.78125 227.625 259.257812 C 226.246094 260.222656 224.832031 261.167969 223.429688 262.070312 C 223.175781 262.230469 222.902344 262.308594 222.621094 262.308594 Z M 91.8125 265.394531 C 91.550781 265.394531 91.296875 265.324219 91.058594 265.199219 C 89.621094 264.363281 88.179688 263.484375 86.753906 262.578125 C 86.050781 262.144531 85.847656 261.222656 86.285156 260.515625 C 86.726562 259.828125 87.652344 259.609375 88.351562 260.054688 C 89.746094 260.933594 91.160156 261.800781 92.558594 262.59375 C 93.261719 263.015625 93.511719 263.9375 93.109375 264.648438 C 92.828125 265.121094 92.328125 265.394531 91.8125 265.394531 Z M 211.367188 268.761719 C 210.8125 268.761719 210.285156 268.453125 210.03125 267.9375 C 209.65625 267.203125 209.945312 266.296875 210.6875 265.925781 C 212.148438 265.183594 213.613281 264.40625 215.039062 263.609375 C 215.765625 263.199219 216.683594 263.46875 217.082031 264.191406 C 217.480469 264.910156 217.222656 265.816406 216.503906 266.222656 C 215.039062 267.039062 213.53125 267.835938 212.042969 268.59375 C 211.828125 268.699219 211.59375 268.761719 211.367188 268.761719 Z M 103.320312 271.28125 C 103.113281 271.28125 102.910156 271.242188 102.707031 271.164062 C 101.183594 270.476562 99.65625 269.753906 98.160156 269.015625 C 97.425781 268.636719 97.125 267.734375 97.488281 267.007812 C 97.855469 266.261719 98.757812 265.964844 99.492188 266.332031 C 100.953125 267.050781 102.449219 267.757812 103.9375 268.429688 C 104.6875 268.765625 105.023438 269.652344 104.6875 270.40625 C 104.445312 270.960938 103.898438 271.28125 103.320312 271.28125 Z M 199.496094 274.007812 C 198.886719 274.007812 198.324219 273.648438 198.097656 273.042969 C 197.800781 272.269531 198.191406 271.40625 198.953125 271.117188 C 200.492188 270.523438 202.035156 269.894531 203.539062 269.261719 C 204.296875 268.925781 205.179688 269.285156 205.503906 270.046875 C 205.824219 270.796875 205.480469 271.679688 204.714844 272.007812 C 203.179688 272.675781 201.597656 273.308594 200.03125 273.917969 C 199.855469 273.972656 199.671875 274.007812 199.496094 274.007812 Z M 115.390625 275.96875 C 115.242188 275.96875 115.085938 275.9375 114.921875 275.890625 C 113.324219 275.363281 111.726562 274.804688 110.167969 274.222656 C 109.398438 273.933594 108.996094 273.066406 109.292969 272.292969 C 109.582031 271.515625 110.445312 271.125 111.21875 271.417969 C 112.730469 271.988281 114.300781 272.53125 115.863281 273.050781 C 116.652344 273.308594 117.074219 274.160156 116.808594 274.9375 C 116.609375 275.558594 116.023438 275.96875 115.390625 275.96875 Z M 187.144531 277.992188 C 186.488281 277.992188 185.878906 277.550781 185.699219 276.894531 C 185.496094 276.082031 185.964844 275.265625 186.761719 275.046875 C 188.339844 274.640625 189.933594 274.175781 191.503906 273.691406 C 192.289062 273.441406 193.121094 273.878906 193.363281 274.679688 C 193.613281 275.476562 193.175781 276.300781 192.382812 276.550781 C 190.777344 277.042969 189.148438 277.511719 187.535156 277.941406 C 187.398438 277.988281 187.277344 277.992188 187.144531 277.992188 Z M 127.898438 279.359375 C 127.796875 279.359375 127.683594 279.355469 127.574219 279.332031 C 125.941406 278.976562 124.285156 278.589844 122.671875 278.160156 C 121.871094 277.949219 121.394531 277.148438 121.601562 276.335938 C 121.808594 275.539062 122.625 275.054688 123.421875 275.265625 C 124.996094 275.671875 126.613281 276.066406 128.214844 276.410156 C 129.019531 276.582031 129.535156 277.378906 129.359375 278.183594 C 129.207031 278.882812 128.589844 279.359375 127.898438 279.359375 Z M 174.476562 280.675781 C 173.753906 280.675781 173.117188 280.144531 173 279.421875 C 172.875 278.601562 173.429688 277.839844 174.238281 277.703125 C 175.859375 277.449219 177.5 277.148438 179.09375 276.847656 C 179.898438 276.667969 180.6875 277.207031 180.851562 278.015625 C 181.015625 278.816406 180.484375 279.609375 179.679688 279.773438 C 178.035156 280.105469 176.371094 280.398438 174.714844 280.664062 C 174.628906 280.675781 174.550781 280.675781 174.476562 280.675781 Z M 140.683594 281.457031 L 140.527344 281.441406 C 138.859375 281.269531 137.175781 281.046875 135.515625 280.796875 C 134.699219 280.667969 134.140625 279.90625 134.257812 279.085938 C 134.382812 278.265625 135.152344 277.703125 135.96875 277.839844 C 137.578125 278.074219 139.222656 278.296875 140.851562 278.480469 C 141.671875 278.566406 142.265625 279.308594 142.171875 280.125 C 142.085938 280.886719 141.441406 281.457031 140.683594 281.457031 Z M 161.585938 282.035156 C 160.796875 282.035156 160.140625 281.417969 160.09375 280.617188 C 160.054688 279.800781 160.683594 279.101562 161.507812 279.054688 C 163.144531 278.960938 164.796875 278.839844 166.429688 278.679688 C 167.246094 278.601562 167.976562 279.214844 168.058594 280.035156 C 168.128906 280.863281 167.523438 281.589844 166.703125 281.664062 C 165.03125 281.816406 163.339844 281.949219 161.667969 282.035156 Z M 153.625 282.222656 L 153.613281 282.222656 C 151.9375 282.210938 150.25 282.152344 148.5625 282.082031 C 147.738281 282.046875 147.097656 281.339844 147.140625 280.511719 C 147.183594 279.691406 147.886719 279.0625 148.699219 279.101562 C 150.34375 279.171875 152.003906 279.214844 153.628906 279.234375 C 154.457031 279.234375 155.121094 279.90625 155.113281 280.738281 C 155.113281 281.5625 154.441406 282.222656 153.625 282.222656 "/>
</g>
<clipPath id="clip3">
  <path d="M 143 65 L 212 65 L 212 132.75 L 143 132.75 Z M 143 65 "/>
</clipPath>
<clipPath id="clip4">
  <path d="M 129.953125 83 L 148 83 L 148 88 L 129.953125 88 Z M 129.953125 83 "/>
</clipPath>
<clipPath id="clip5">
  <path d="M 207 83 L 225.203125 83 L 225.203125 88 L 207 88 Z M 207 83 "/>
</clipPath>
<clipPath id="clip6">
  <path d="M 175 37.5 L 180 37.5 L 180 56 L 175 56 Z M 175 37.5 "/>
</clipPath>
<clipPath id="clip7">
  <path d="M 128 268 L 227 268 L 227 275.5 L 128 275.5 Z M 128 268 "/>
</clipPath>
<clipPath id="clip8">
  <path d="M 174 242 L 181 242 L 181 275.5 L 174 275.5 Z M 174 242 "/>
</clipPath>
<clipPath id="clip9">
  <path d="M 102.421875 132.4375 L 252.421875 132.4375 L 252.421875 250 L 102.421875 250 Z M 102.421875 132.4375 "/>
</clipPath>
<clipPath id="clip10">
  <path d="M 102.421875 132.4375 L 252.421875 132.4375 L 252.421875 250 L 102.421875 250 Z M 102.421875 132.4375 "/>
</clipPath>
<clipPath id="clip11">
  <path d="M 128 268 L 227 268 L 227 275.5 L 128 275.5 Z M 128 268 "/>
</clipPath>
<clipPath id="clip12">
  <path d="M 102.421875 216 L 252.421875 216 L 252.421875 224 L 102.421875 224 Z M 102.421875 216 "/>
</clipPath>
<clipPath id="clip13">
  <path d="M 174 242 L 181 242 L 181 275.5 L 174 275.5 Z M 174 242 "/>
</clipPath>
</defs>
<g id="surface1">
<use xlink:href="#surface5" transform="matrix(1,0,0,1,23,7)" mask="url(#mask0)"/>
<path style=" stroke:none;fill-rule:nonzero;fill:rgb(100%,8.628845%,8.628845%);fill-opacity:1;" d="M 198.601562 83.144531 L 196.183594 67.453125 L 161.582031 67.453125 L 158.234375 69.3125 L 154.699219 114.890625 L 200.644531 114.890625 Z M 198.601562 83.144531 "/>
<path style=" stroke:none;fill-rule:nonzero;fill:rgb(96.078491%,96.859741%,98.039246%);fill-opacity:1;" d="M 179.5625 91.171875 L 175.59375 91.171875 L 173.859375 95.355469 L 173.859375 106.519531 L 177.671875 110.980469 L 181.300781 105.585938 L 181.300781 94.425781 Z M 179.5625 91.171875 "/>
<path style=" stroke:none;fill-rule:nonzero;fill:rgb(90.19928%,91.369629%,92.939758%);fill-opacity:1;" d="M 150.792969 114.890625 L 204.273438 114.890625 L 204.273438 120.191406 L 150.792969 120.191406 Z M 150.792969 114.890625 "/>
<path style=" stroke:none;fill-rule:nonzero;fill:rgb(39.608765%,42.749023%,47.059631%);fill-opacity:1;" d="M 146.328125 121.304688 L 207.996094 121.304688 L 207.996094 130.609375 L 146.328125 130.609375 Z M 146.328125 121.304688 "/>
<g clip-path="url(#clip3)" clip-rule="nonzero">
<path style=" stroke:none;fill-rule:nonzero;fill:rgb(0%,0%,0%);fill-opacity:1;" d="M 209.324219 118.859375 L 207.34375 118.859375 L 207.34375 114.890625 C 207.34375 113.792969 206.453125 112.90625 205.359375 112.90625 L 202.667969 112.90625 L 199.683594 71.082031 C 199.453125 67.882812 196.660156 65.285156 193.457031 65.285156 L 161.703125 65.285156 C 158.5 65.285156 155.703125 67.882812 155.472656 71.082031 L 152.488281 112.90625 L 149.800781 112.90625 C 148.703125 112.90625 147.816406 113.792969 147.816406 114.890625 L 147.816406 118.859375 L 145.832031 118.859375 C 144.734375 118.859375 143.847656 119.746094 143.847656 120.839844 L 143.847656 130.765625 C 143.847656 131.859375 144.734375 132.746094 145.832031 132.746094 L 209.324219 132.746094 C 210.425781 132.746094 211.3125 131.859375 211.3125 130.765625 L 211.3125 120.839844 C 211.3125 119.746094 210.425781 118.859375 209.324219 118.859375 Z M 159.433594 71.363281 C 159.515625 70.21875 160.554688 69.25 161.703125 69.25 L 193.457031 69.25 C 194.601562 69.25 195.644531 70.21875 195.726562 71.363281 L 198.691406 112.90625 L 179.5625 112.90625 L 179.5625 111.742188 L 182.949219 108.355469 C 183.324219 107.984375 183.53125 107.476562 183.53125 106.953125 L 183.53125 103.621094 C 188.21875 101.390625 191.46875 96.605469 191.46875 91.078125 C 191.46875 83.417969 185.238281 77.191406 177.578125 77.191406 C 169.921875 77.191406 163.691406 83.417969 163.691406 91.078125 C 163.691406 96.605469 166.9375 101.390625 171.625 103.621094 L 171.625 106.953125 C 171.625 107.476562 171.835938 107.984375 172.207031 108.355469 L 175.59375 111.742188 L 175.59375 112.90625 L 156.464844 112.90625 Z M 183.53125 96.320312 C 184.765625 94.921875 185.515625 93.085938 185.515625 91.078125 C 185.515625 86.699219 181.957031 83.144531 177.578125 83.144531 C 173.203125 83.144531 169.644531 86.699219 169.644531 91.078125 C 169.644531 93.085938 170.394531 94.921875 171.625 96.320312 L 171.625 99.007812 C 169.21875 97.195312 167.65625 94.316406 167.65625 91.078125 C 167.65625 85.609375 172.109375 81.15625 177.578125 81.15625 C 183.050781 81.15625 187.503906 85.609375 187.503906 91.078125 C 187.503906 94.316406 185.9375 97.195312 183.53125 99.007812 Z M 173.640625 90.585938 C 173.886719 88.628906 175.558594 87.105469 177.578125 87.105469 C 179.601562 87.105469 181.273438 88.628906 181.515625 90.585938 C 180.464844 89.660156 179.089844 89.09375 177.578125 89.09375 C 176.070312 89.09375 174.691406 89.660156 173.640625 90.585938 Z M 177.578125 108.113281 L 175.59375 106.128906 L 175.59375 95.046875 C 175.59375 93.953125 176.484375 93.058594 177.578125 93.058594 C 178.675781 93.058594 179.5625 93.953125 179.5625 95.046875 L 179.5625 106.128906 Z M 151.785156 116.871094 L 203.371094 116.871094 L 203.371094 118.859375 L 151.785156 118.859375 Z M 207.34375 128.777344 L 203.371094 128.777344 L 203.371094 126.792969 C 203.371094 125.699219 202.484375 124.8125 201.390625 124.8125 C 200.292969 124.8125 199.40625 125.699219 199.40625 126.792969 L 199.40625 128.777344 L 195.4375 128.777344 L 195.4375 126.792969 C 195.4375 125.699219 194.546875 124.8125 193.457031 124.8125 C 192.355469 124.8125 191.46875 125.699219 191.46875 126.792969 L 191.46875 128.777344 L 187.503906 128.777344 L 187.503906 126.792969 C 187.503906 125.699219 186.613281 124.8125 185.515625 124.8125 C 184.421875 124.8125 183.53125 125.699219 183.53125 126.792969 L 183.53125 128.777344 L 179.5625 128.777344 L 179.5625 126.792969 C 179.5625 125.699219 178.675781 124.8125 177.578125 124.8125 C 176.484375 124.8125 175.59375 125.699219 175.59375 126.792969 L 175.59375 128.777344 L 171.625 128.777344 L 171.625 126.792969 C 171.625 125.699219 170.738281 124.8125 169.644531 124.8125 C 168.546875 124.8125 167.65625 125.699219 167.65625 126.792969 L 167.65625 128.777344 L 163.691406 128.777344 L 163.691406 126.792969 C 163.691406 125.699219 162.800781 124.8125 161.703125 124.8125 C 160.609375 124.8125 159.722656 125.699219 159.722656 126.792969 L 159.722656 128.777344 L 155.753906 128.777344 L 155.753906 126.792969 C 155.753906 125.699219 154.863281 124.8125 153.769531 124.8125 C 152.671875 124.8125 151.785156 125.699219 151.785156 126.792969 L 151.785156 128.777344 L 147.816406 128.777344 L 147.816406 122.824219 L 207.34375 122.824219 Z M 207.34375 128.777344 "/>
</g>
<g clip-path="url(#clip4)" clip-rule="nonzero">
<path style=" stroke:none;fill-rule:nonzero;fill:rgb(0%,0%,0%);fill-opacity:1;" d="M 147.816406 85.125 C 147.816406 84.027344 146.925781 83.144531 145.832031 83.144531 L 131.941406 83.144531 C 130.84375 83.144531 129.957031 84.027344 129.957031 85.125 C 129.957031 86.222656 130.84375 87.105469 131.941406 87.105469 L 145.832031 87.105469 C 146.925781 87.105469 147.816406 86.222656 147.816406 85.125 Z M 147.816406 85.125 "/>
</g>
<g clip-path="url(#clip5)" clip-rule="nonzero">
<path style=" stroke:none;fill-rule:nonzero;fill:rgb(0%,0%,0%);fill-opacity:1;" d="M 223.21875 83.144531 L 209.324219 83.144531 C 208.234375 83.144531 207.34375 84.027344 207.34375 85.125 C 207.34375 86.222656 208.234375 87.105469 209.324219 87.105469 L 223.21875 87.105469 C 224.3125 87.105469 225.203125 86.21875 225.203125 85.125 C 225.203125 84.027344 224.3125 83.144531 223.21875 83.144531 Z M 223.21875 83.144531 "/>
</g>
<path style=" stroke:none;fill-rule:nonzero;fill:rgb(0%,0%,0%);fill-opacity:1;" d="M 205.074219 71.238281 C 205.414062 71.238281 205.753906 71.148438 206.0625 70.96875 L 218.09375 64.023438 C 219.046875 63.476562 219.371094 62.261719 218.820312 61.3125 C 218.273438 60.367188 217.058594 60.039062 216.109375 60.585938 L 204.082031 67.535156 C 203.132812 68.082031 202.808594 69.296875 203.355469 70.242188 C 203.722656 70.878906 204.390625 71.238281 205.074219 71.238281 Z M 205.074219 71.238281 "/>
<path style=" stroke:none;fill-rule:nonzero;fill:rgb(0%,0%,0%);fill-opacity:1;" d="M 192.460938 59.347656 C 192.773438 59.53125 193.117188 59.617188 193.449219 59.617188 C 194.136719 59.617188 194.804688 59.257812 195.171875 58.621094 L 202.117188 46.59375 C 202.664062 45.644531 202.339844 44.433594 201.390625 43.882812 C 200.441406 43.332031 199.226562 43.660156 198.679688 44.609375 L 191.734375 56.640625 C 191.1875 57.585938 191.515625 58.800781 192.460938 59.347656 Z M 192.460938 59.347656 "/>
<g clip-path="url(#clip6)" clip-rule="nonzero">
<path style=" stroke:none;fill-rule:nonzero;fill:rgb(0%,0%,0%);fill-opacity:1;" d="M 177.578125 55.359375 C 178.675781 55.359375 179.5625 54.472656 179.5625 53.378906 L 179.5625 39.484375 C 179.5625 38.390625 178.675781 37.503906 177.578125 37.503906 C 176.484375 37.503906 175.59375 38.390625 175.59375 39.484375 L 175.59375 53.378906 C 175.59375 54.472656 176.484375 55.359375 177.578125 55.359375 Z M 177.578125 55.359375 "/>
</g>
<path style=" stroke:none;fill-rule:nonzero;fill:rgb(0%,0%,0%);fill-opacity:1;" d="M 159.988281 58.621094 C 160.355469 59.257812 161.023438 59.617188 161.707031 59.617188 C 162.042969 59.617188 162.386719 59.527344 162.699219 59.347656 C 163.648438 58.800781 163.972656 57.585938 163.425781 56.640625 L 156.480469 44.609375 C 155.929688 43.660156 154.71875 43.332031 153.769531 43.882812 C 152.820312 44.433594 152.492188 45.644531 153.042969 46.59375 Z M 159.988281 58.621094 "/>
<path style=" stroke:none;fill-rule:nonzero;fill:rgb(0%,0%,0%);fill-opacity:1;" d="M 137.0625 64.023438 L 149.09375 70.96875 C 149.40625 71.148438 149.746094 71.238281 150.082031 71.238281 C 150.769531 71.238281 151.4375 70.878906 151.804688 70.242188 C 152.351562 69.296875 152.027344 68.082031 151.078125 67.535156 L 139.046875 60.585938 C 138.097656 60.039062 136.886719 60.367188 136.335938 61.3125 C 135.789062 62.261719 136.113281 63.476562 137.0625 64.023438 Z M 137.0625 64.023438 "/>
<g clip-path="url(#clip7)" clip-rule="nonzero">
<path style=" stroke:none;fill-rule:nonzero;fill:rgb(37.649536%,49.01886%,54.508972%);fill-opacity:1;" d="M 223.0625 275.5 L 131.785156 275.5 C 131.351562 275.5 130.9375 275.417969 130.535156 275.253906 C 130.136719 275.085938 129.785156 274.851562 129.480469 274.546875 C 129.171875 274.242188 128.9375 273.890625 128.773438 273.492188 C 128.605469 273.09375 128.523438 272.679688 128.523438 272.25 C 128.523438 271.816406 128.605469 271.402344 128.773438 271.003906 C 128.9375 270.605469 129.171875 270.253906 129.480469 269.949219 C 129.785156 269.644531 130.136719 269.410156 130.535156 269.246094 C 130.9375 269.078125 131.351562 268.996094 131.785156 268.996094 L 223.0625 268.996094 C 223.496094 268.996094 223.910156 269.078125 224.308594 269.246094 C 224.710938 269.410156 225.0625 269.644531 225.367188 269.949219 C 225.671875 270.253906 225.910156 270.605469 226.074219 271.003906 C 226.238281 271.402344 226.324219 271.816406 226.324219 272.25 C 226.324219 272.679688 226.238281 273.09375 226.074219 273.492188 C 225.910156 273.890625 225.671875 274.242188 225.367188 274.546875 C 225.0625 274.851562 224.710938 275.085938 224.308594 275.253906 C 223.910156 275.417969 223.496094 275.5 223.0625 275.5 Z M 223.0625 275.5 "/>
</g>
<g clip-path="url(#clip8)" clip-rule="nonzero">
<path style=" stroke:none;fill-rule:nonzero;fill:rgb(37.649536%,49.01886%,54.508972%);fill-opacity:1;" d="M 177.421875 275.5 C 176.992188 275.5 176.574219 275.417969 176.175781 275.253906 C 175.777344 275.085938 175.421875 274.851562 175.117188 274.546875 C 174.8125 274.242188 174.578125 273.890625 174.410156 273.492188 C 174.246094 273.09375 174.164062 272.679688 174.164062 272.25 L 174.164062 246.238281 C 174.164062 245.804688 174.246094 245.390625 174.410156 244.992188 C 174.578125 244.59375 174.8125 244.242188 175.117188 243.9375 C 175.421875 243.632812 175.777344 243.398438 176.175781 243.234375 C 176.574219 243.070312 176.992188 242.984375 177.421875 242.984375 C 177.855469 242.984375 178.269531 243.070312 178.671875 243.234375 C 179.070312 243.398438 179.421875 243.632812 179.726562 243.9375 C 180.035156 244.242188 180.269531 244.59375 180.433594 244.992188 C 180.601562 245.390625 180.683594 245.804688 180.683594 246.238281 L 180.683594 272.25 C 180.683594 272.679688 180.601562 273.09375 180.433594 273.492188 C 180.269531 273.890625 180.035156 274.242188 179.726562 274.546875 C 179.421875 274.851562 179.070312 275.085938 178.671875 275.253906 C 178.269531 275.417969 177.855469 275.5 177.421875 275.5 Z M 177.421875 275.5 "/>
</g>
<g clip-path="url(#clip9)" clip-rule="nonzero">
<path style=" stroke:none;fill-rule:nonzero;fill:rgb(27.059937%,35.289001%,39.219666%);fill-opacity:1;" d="M 118.746094 132.4375 L 236.101562 132.4375 C 236.636719 132.4375 237.167969 132.464844 237.699219 132.515625 C 238.230469 132.566406 238.757812 132.644531 239.28125 132.75 C 239.804688 132.855469 240.324219 132.984375 240.832031 133.136719 C 241.34375 133.292969 241.847656 133.472656 242.339844 133.675781 C 242.832031 133.878906 243.316406 134.105469 243.785156 134.355469 C 244.257812 134.609375 244.714844 134.882812 245.15625 135.175781 C 245.601562 135.472656 246.03125 135.789062 246.441406 136.128906 C 246.855469 136.464844 247.25 136.824219 247.628906 137.199219 C 248.003906 137.574219 248.363281 137.96875 248.703125 138.382812 C 249.039062 138.792969 249.359375 139.21875 249.65625 139.664062 C 249.953125 140.105469 250.226562 140.5625 250.476562 141.03125 C 250.730469 141.5 250.957031 141.980469 251.160156 142.472656 C 251.367188 142.964844 251.546875 143.464844 251.699219 143.976562 C 251.855469 144.484375 251.984375 145 252.089844 145.523438 C 252.191406 146.046875 252.269531 146.570312 252.324219 147.101562 C 252.375 147.632812 252.402344 148.164062 252.402344 148.695312 L 252.402344 233.230469 C 252.402344 233.765625 252.375 234.296875 252.324219 234.824219 C 252.269531 235.355469 252.191406 235.882812 252.089844 236.402344 C 251.984375 236.925781 251.855469 237.441406 251.699219 237.949219 C 251.546875 238.460938 251.367188 238.960938 251.160156 239.453125 C 250.957031 239.945312 250.730469 240.425781 250.476562 240.894531 C 250.226562 241.363281 249.953125 241.820312 249.65625 242.265625 C 249.359375 242.707031 249.039062 243.132812 248.703125 243.546875 C 248.363281 243.957031 248.003906 244.351562 247.628906 244.726562 C 247.25 245.105469 246.855469 245.460938 246.441406 245.796875 C 246.03125 246.136719 245.601562 246.453125 245.15625 246.75 C 244.714844 247.042969 244.257812 247.316406 243.785156 247.570312 C 243.316406 247.820312 242.832031 248.046875 242.339844 248.25 C 241.847656 248.457031 241.34375 248.632812 240.832031 248.789062 C 240.324219 248.945312 239.804688 249.074219 239.28125 249.175781 C 238.757812 249.28125 238.230469 249.359375 237.699219 249.410156 C 237.167969 249.460938 236.636719 249.488281 236.101562 249.488281 L 118.746094 249.488281 C 118.210938 249.488281 117.679688 249.460938 117.148438 249.410156 C 116.617188 249.359375 116.089844 249.28125 115.5625 249.175781 C 115.039062 249.074219 114.523438 248.945312 114.011719 248.789062 C 113.5 248.632812 113 248.457031 112.507812 248.25 C 112.011719 248.046875 111.53125 247.820312 111.0625 247.570312 C 110.589844 247.316406 110.132812 247.042969 109.6875 246.75 C 109.246094 246.453125 108.816406 246.136719 108.402344 245.796875 C 107.992188 245.460938 107.597656 245.105469 107.21875 244.726562 C 106.839844 244.351562 106.484375 243.957031 106.144531 243.546875 C 105.804688 243.132812 105.488281 242.707031 105.191406 242.265625 C 104.894531 241.820312 104.621094 241.363281 104.371094 240.894531 C 104.117188 240.425781 103.890625 239.945312 103.683594 239.453125 C 103.480469 238.960938 103.300781 238.460938 103.144531 237.949219 C 102.992188 237.441406 102.863281 236.925781 102.757812 236.402344 C 102.652344 235.882812 102.574219 235.355469 102.523438 234.824219 C 102.46875 234.296875 102.445312 233.765625 102.445312 233.230469 L 102.445312 148.695312 C 102.445312 148.164062 102.46875 147.632812 102.523438 147.101562 C 102.574219 146.570312 102.652344 146.046875 102.757812 145.523438 C 102.863281 145 102.992188 144.484375 103.144531 143.976562 C 103.300781 143.464844 103.480469 142.964844 103.683594 142.472656 C 103.890625 141.980469 104.117188 141.5 104.371094 141.03125 C 104.621094 140.5625 104.894531 140.105469 105.191406 139.664062 C 105.488281 139.21875 105.804688 138.792969 106.144531 138.382812 C 106.484375 137.96875 106.839844 137.574219 107.21875 137.199219 C 107.597656 136.824219 107.992188 136.464844 108.402344 136.128906 C 108.816406 135.789062 109.246094 135.472656 109.6875 135.175781 C 110.132812 134.882812 110.589844 134.609375 111.0625 134.355469 C 111.53125 134.105469 112.011719 133.878906 112.507812 133.675781 C 113 133.472656 113.5 133.292969 114.011719 133.136719 C 114.523438 132.984375 115.039062 132.855469 115.5625 132.75 C 116.089844 132.644531 116.617188 132.566406 117.148438 132.515625 C 117.679688 132.464844 118.210938 132.4375 118.746094 132.4375 Z M 118.746094 132.4375 "/>
</g>
<path style=" stroke:none;fill-rule:nonzero;fill:rgb(92.549133%,93.728638%,94.509888%);fill-opacity:1;" d="M 118.746094 138.941406 L 236.101562 138.941406 C 236.746094 138.941406 237.378906 139.003906 238.011719 139.128906 C 238.640625 139.253906 239.25 139.4375 239.84375 139.683594 C 240.4375 139.929688 241 140.230469 241.535156 140.585938 C 242.070312 140.941406 242.5625 141.34375 243.015625 141.796875 C 243.472656 142.25 243.878906 142.742188 244.234375 143.277344 C 244.589844 143.808594 244.890625 144.371094 245.136719 144.960938 C 245.382812 145.554688 245.570312 146.164062 245.695312 146.792969 C 245.820312 147.421875 245.882812 148.054688 245.882812 148.695312 L 245.882812 216.976562 L 108.964844 216.976562 L 108.964844 148.695312 C 108.964844 148.054688 109.027344 147.421875 109.152344 146.792969 C 109.277344 146.164062 109.464844 145.554688 109.707031 144.960938 C 109.953125 144.371094 110.253906 143.808594 110.613281 143.277344 C 110.96875 142.742188 111.375 142.25 111.828125 141.796875 C 112.28125 141.34375 112.777344 140.941406 113.3125 140.585938 C 113.84375 140.230469 114.410156 139.929688 115 139.683594 C 115.59375 139.4375 116.207031 139.253906 116.835938 139.128906 C 117.464844 139.003906 118.101562 138.941406 118.746094 138.941406 Z M 118.746094 138.941406 "/>
<path style=" stroke:none;fill-rule:nonzero;fill:rgb(12.939453%,58.81958%,95.289612%);fill-opacity:1;" d="M 193.605469 194.574219 L 183.089844 191.972656 L 181.890625 187.191406 C 183.382812 185.828125 184.582031 184.242188 185.480469 182.433594 C 186.382812 180.625 186.921875 178.714844 187.105469 176.703125 L 187.203125 176.703125 C 187.515625 176.703125 187.816406 176.648438 188.105469 176.539062 C 188.394531 176.429688 188.660156 176.269531 188.890625 176.066406 C 189.125 175.859375 189.3125 175.621094 189.457031 175.34375 C 189.601562 175.070312 189.695312 174.78125 189.734375 174.472656 L 190.382812 169.378906 C 190.429688 169.019531 190.402344 168.660156 190.292969 168.3125 C 190.1875 167.960938 190.011719 167.648438 189.769531 167.375 C 189.527344 167.101562 189.238281 166.886719 188.90625 166.738281 C 188.570312 166.585938 188.222656 166.511719 187.855469 166.511719 L 188.167969 160.144531 L 189.472656 158.84375 C 189.871094 158.414062 190.179688 157.921875 190.394531 157.371094 C 190.609375 156.824219 190.71875 156.253906 190.71875 155.664062 C 190.71875 155.078125 190.609375 154.507812 190.394531 153.957031 C 190.179688 153.410156 189.871094 152.917969 189.472656 152.484375 C 188.980469 151.828125 188.414062 151.238281 187.769531 150.726562 C 187.125 150.214844 186.425781 149.792969 185.671875 149.460938 C 184.917969 149.128906 184.136719 148.894531 183.324219 148.765625 C 182.507812 148.636719 181.691406 148.613281 180.871094 148.695312 C 179.230469 148.613281 177.617188 148.789062 176.035156 149.222656 C 174.453125 149.660156 172.976562 150.328125 171.609375 151.238281 C 161.324219 151.339844 160.125 155.613281 160.125 160.144531 C 160.125 161.746094 160.726562 166.507812 160.726562 166.507812 L 160.472656 166.507812 C 160.105469 166.507812 159.753906 166.582031 159.421875 166.730469 C 159.089844 166.882812 158.800781 167.09375 158.558594 167.367188 C 158.316406 167.640625 158.140625 167.953125 158.035156 168.300781 C 157.925781 168.648438 157.894531 169.003906 157.941406 169.367188 L 158.59375 174.460938 C 158.636719 174.765625 158.730469 175.050781 158.875 175.324219 C 159.023438 175.59375 159.210938 175.828125 159.445312 176.03125 C 159.675781 176.234375 159.9375 176.386719 160.226562 176.496094 C 160.515625 176.605469 160.816406 176.65625 161.125 176.65625 L 161.539062 176.65625 C 161.71875 178.613281 162.234375 180.476562 163.085938 182.246094 C 163.941406 184.015625 165.078125 185.578125 166.503906 186.9375 L 165.25 191.925781 L 154.734375 194.527344 C 154.027344 194.699219 153.34375 194.933594 152.675781 195.21875 C 152.011719 195.507812 151.371094 195.847656 150.761719 196.242188 C 150.152344 196.636719 149.582031 197.082031 149.046875 197.570312 C 148.511719 198.058594 148.019531 198.589844 147.574219 199.160156 C 147.128906 199.734375 146.734375 200.339844 146.386719 200.976562 C 146.042969 201.613281 145.753906 202.273438 145.519531 202.960938 C 145.285156 203.644531 145.109375 204.347656 144.992188 205.0625 C 144.875 205.777344 144.820312 206.496094 144.824219 207.21875 L 203.503906 207.21875 C 203.503906 206.5 203.445312 205.78125 203.328125 205.070312 C 203.210938 204.355469 203.03125 203.660156 202.796875 202.976562 C 202.5625 202.292969 202.273438 201.632812 201.929688 201 C 201.582031 200.363281 201.1875 199.761719 200.742188 199.191406 C 200.296875 198.625 199.808594 198.09375 199.273438 197.605469 C 198.742188 197.121094 198.167969 196.679688 197.5625 196.285156 C 196.957031 195.890625 196.320312 195.550781 195.65625 195.265625 C 194.992188 194.976562 194.308594 194.746094 193.605469 194.574219 Z M 193.605469 194.574219 "/>
<path style=" stroke:none;fill-rule:nonzero;fill:rgb(0%,0%,0%);fill-opacity:1;" d="M 144.824219 210.472656 C 144.390625 210.472656 143.976562 210.390625 143.578125 210.222656 C 143.175781 210.058594 142.824219 209.824219 142.519531 209.519531 C 142.214844 209.214844 141.976562 208.863281 141.8125 208.464844 C 141.648438 208.066406 141.5625 207.652344 141.5625 207.21875 C 141.5625 206.316406 141.636719 205.421875 141.785156 204.53125 C 141.933594 203.640625 142.15625 202.769531 142.449219 201.914062 C 142.742188 201.058594 143.105469 200.238281 143.539062 199.445312 C 143.972656 198.648438 144.464844 197.898438 145.023438 197.1875 C 145.582031 196.476562 146.191406 195.816406 146.859375 195.207031 C 147.527344 194.597656 148.242188 194.046875 149.003906 193.554688 C 149.761719 193.066406 150.558594 192.640625 151.386719 192.28125 C 152.21875 191.921875 153.074219 191.636719 153.953125 191.417969 L 162.570312 189.273438 L 162.910156 187.902344 C 160.773438 185.390625 159.351562 182.53125 158.644531 179.316406 C 157.753906 178.90625 157.015625 178.304688 156.433594 177.511719 C 155.855469 176.71875 155.503906 175.835938 155.386719 174.863281 L 154.734375 169.765625 C 154.628906 168.941406 154.703125 168.128906 154.945312 167.335938 C 155.191406 166.542969 155.589844 165.835938 156.140625 165.210938 C 156.457031 164.851562 156.816406 164.539062 157.210938 164.269531 C 157.054688 162.765625 156.886719 161.019531 156.886719 160.144531 C 156.886719 152.226562 161.253906 148.355469 170.578125 148.019531 C 172.132812 147.101562 173.785156 146.425781 175.539062 145.988281 C 177.289062 145.550781 179.066406 145.367188 180.871094 145.441406 C 181.964844 145.351562 183.050781 145.402344 184.132812 145.59375 C 185.210938 145.789062 186.25 146.117188 187.242188 146.578125 C 188.234375 147.042969 189.152344 147.628906 189.992188 148.332031 C 190.832031 149.035156 191.566406 149.835938 192.199219 150.730469 C 192.5 151.097656 192.765625 151.484375 192.996094 151.898438 C 193.230469 152.3125 193.421875 152.746094 193.574219 153.191406 C 193.726562 153.640625 193.835938 154.101562 193.90625 154.570312 C 193.976562 155.039062 194.003906 155.507812 193.988281 155.984375 C 193.972656 156.457031 193.914062 156.925781 193.8125 157.386719 C 193.710938 157.851562 193.566406 158.300781 193.386719 158.738281 C 193.203125 159.175781 192.980469 159.59375 192.722656 159.988281 C 192.464844 160.386719 192.171875 160.757812 191.84375 161.101562 L 191.394531 161.550781 L 191.257812 164.355469 C 191.625 164.617188 191.957031 164.917969 192.25 165.257812 C 192.789062 165.878906 193.179688 166.582031 193.421875 167.367188 C 193.660156 168.152344 193.726562 168.953125 193.625 169.769531 L 192.972656 174.855469 C 192.855469 175.777344 192.535156 176.625 192.011719 177.394531 C 191.488281 178.164062 190.816406 178.769531 190 179.21875 C 189.28125 182.589844 187.777344 185.570312 185.488281 188.152344 L 185.769531 189.273438 L 194.386719 191.417969 C 195.265625 191.636719 196.121094 191.925781 196.949219 192.28125 C 197.78125 192.640625 198.574219 193.066406 199.332031 193.558594 C 200.09375 194.050781 200.804688 194.601562 201.472656 195.210938 C 202.140625 195.820312 202.75 196.480469 203.308594 197.191406 C 203.867188 197.902344 204.359375 198.652344 204.789062 199.445312 C 205.222656 200.238281 205.585938 201.0625 205.878906 201.917969 C 206.171875 202.769531 206.394531 203.640625 206.542969 204.53125 C 206.691406 205.421875 206.765625 206.316406 206.761719 207.21875 C 206.761719 207.652344 206.679688 208.066406 206.515625 208.464844 C 206.347656 208.863281 206.113281 209.214844 205.808594 209.519531 C 205.503906 209.824219 205.148438 210.058594 204.75 210.222656 C 204.351562 210.390625 203.933594 210.472656 203.503906 210.472656 Z M 148.636719 203.96875 L 199.6875 203.96875 C 199.421875 203.207031 199.0625 202.488281 198.613281 201.8125 C 198.167969 201.136719 197.640625 200.53125 197.042969 199.984375 C 196.441406 199.441406 195.785156 198.976562 195.070312 198.597656 C 194.355469 198.214844 193.605469 197.925781 192.816406 197.734375 L 182.300781 195.132812 C 181.714844 194.984375 181.210938 194.699219 180.785156 194.277344 C 180.359375 193.851562 180.074219 193.347656 179.925781 192.765625 L 178.726562 187.957031 C 178.582031 187.375 178.597656 186.796875 178.773438 186.21875 C 178.949219 185.644531 179.261719 185.15625 179.710938 184.753906 C 180.890625 183.667969 181.832031 182.40625 182.542969 180.972656 C 183.253906 179.539062 183.6875 178.027344 183.839844 176.4375 C 183.867188 176.070312 183.957031 175.722656 184.101562 175.386719 C 184.25 175.050781 184.445312 174.75 184.695312 174.480469 C 184.945312 174.210938 185.230469 173.992188 185.554688 173.820312 C 185.878906 173.648438 186.222656 173.535156 186.582031 173.476562 L 187.144531 168.96875 C 186.257812 168.96875 185.761719 168.96875 185.15625 168.320312 C 184.90625 168.054688 184.734375 167.746094 184.640625 167.390625 C 184.542969 167.039062 184.539062 166.6875 184.621094 166.332031 L 184.933594 159.964844 C 184.976562 159.128906 185.292969 158.414062 185.886719 157.824219 L 187.191406 156.523438 C 187.449219 156.246094 187.84375 155.875 186.773438 154.242188 C 186.386719 153.65625 185.234375 151.894531 180.90625 151.894531 C 179.605469 151.824219 178.328125 151.953125 177.070312 152.285156 C 175.8125 152.621094 174.636719 153.140625 173.542969 153.84375 C 172.988281 154.246094 172.367188 154.449219 171.679688 154.457031 C 163.425781 154.539062 163.425781 157.117188 163.425781 160.105469 C 163.425781 161.601562 164.003906 166.0625 164.003906 166.0625 C 164.058594 166.480469 164.03125 166.890625 163.925781 167.296875 C 163.816406 167.707031 163.636719 168.078125 163.386719 168.414062 C 163.132812 168.75 162.828125 169.027344 162.46875 169.246094 C 162.109375 169.464844 161.722656 169.609375 161.304688 169.679688 L 161.777344 173.457031 C 162.152344 173.511719 162.507812 173.621094 162.847656 173.789062 C 163.191406 173.957031 163.496094 174.171875 163.769531 174.433594 C 164.039062 174.695312 164.265625 174.996094 164.441406 175.332031 C 164.621094 175.664062 164.742188 176.019531 164.808594 176.390625 C 164.949219 177.941406 165.359375 179.417969 166.03125 180.820312 C 166.703125 182.222656 167.601562 183.46875 168.71875 184.550781 C 169.152344 184.953125 169.449219 185.4375 169.617188 186.003906 C 169.785156 186.570312 169.796875 187.140625 169.652344 187.710938 L 168.398438 192.707031 C 168.253906 193.289062 167.96875 193.792969 167.542969 194.21875 C 167.117188 194.640625 166.609375 194.925781 166.027344 195.074219 L 155.511719 197.675781 C 154.71875 197.871094 153.964844 198.164062 153.25 198.546875 C 152.53125 198.933594 151.871094 199.402344 151.273438 199.953125 C 150.671875 200.5 150.148438 201.117188 149.703125 201.796875 C 149.257812 202.476562 148.902344 203.199219 148.636719 203.96875 Z M 160.730469 169.757812 Z M 160.730469 169.757812 "/>
<g clip-path="url(#clip10)" clip-rule="nonzero">
<path style=" stroke:none;fill-rule:nonzero;fill:rgb(0%,0%,0%);fill-opacity:1;" d="M 236.101562 249.488281 L 118.746094 249.488281 C 118.210938 249.488281 117.679688 249.460938 117.148438 249.410156 C 116.617188 249.359375 116.089844 249.28125 115.5625 249.175781 C 115.039062 249.074219 114.523438 248.945312 114.011719 248.789062 C 113.5 248.632812 113 248.457031 112.507812 248.25 C 112.011719 248.046875 111.53125 247.820312 111.0625 247.570312 C 110.589844 247.316406 110.132812 247.042969 109.6875 246.75 C 109.246094 246.453125 108.816406 246.136719 108.402344 245.796875 C 107.992188 245.460938 107.597656 245.105469 107.21875 244.726562 C 106.839844 244.351562 106.484375 243.957031 106.144531 243.546875 C 105.804688 243.132812 105.488281 242.707031 105.191406 242.265625 C 104.894531 241.820312 104.621094 241.363281 104.371094 240.894531 C 104.117188 240.425781 103.890625 239.945312 103.683594 239.453125 C 103.480469 238.960938 103.300781 238.460938 103.144531 237.949219 C 102.992188 237.441406 102.863281 236.925781 102.757812 236.402344 C 102.652344 235.882812 102.574219 235.355469 102.523438 234.824219 C 102.46875 234.296875 102.445312 233.765625 102.445312 233.230469 L 102.445312 148.695312 C 102.445312 148.164062 102.46875 147.632812 102.523438 147.101562 C 102.574219 146.570312 102.652344 146.046875 102.757812 145.523438 C 102.863281 145 102.992188 144.484375 103.144531 143.976562 C 103.300781 143.464844 103.480469 142.964844 103.683594 142.472656 C 103.890625 141.980469 104.117188 141.5 104.371094 141.03125 C 104.621094 140.5625 104.894531 140.105469 105.191406 139.664062 C 105.488281 139.21875 105.804688 138.792969 106.144531 138.382812 C 106.484375 137.96875 106.839844 137.574219 107.21875 137.199219 C 107.597656 136.824219 107.992188 136.464844 108.402344 136.128906 C 108.816406 135.789062 109.246094 135.472656 109.6875 135.175781 C 110.132812 134.882812 110.589844 134.609375 111.0625 134.355469 C 111.53125 134.105469 112.011719 133.878906 112.507812 133.675781 C 113 133.472656 113.5 133.292969 114.011719 133.136719 C 114.523438 132.984375 115.039062 132.855469 115.5625 132.75 C 116.089844 132.644531 116.617188 132.566406 117.148438 132.515625 C 117.679688 132.464844 118.210938 132.4375 118.746094 132.4375 L 236.101562 132.4375 C 236.636719 132.4375 237.167969 132.464844 237.699219 132.515625 C 238.230469 132.566406 238.757812 132.644531 239.28125 132.75 C 239.804688 132.855469 240.324219 132.984375 240.832031 133.136719 C 241.34375 133.292969 241.847656 133.472656 242.339844 133.675781 C 242.832031 133.878906 243.316406 134.105469 243.785156 134.355469 C 244.257812 134.609375 244.714844 134.882812 245.15625 135.175781 C 245.601562 135.472656 246.03125 135.789062 246.441406 136.128906 C 246.855469 136.464844 247.25 136.824219 247.628906 137.199219 C 248.003906 137.574219 248.363281 137.96875 248.703125 138.382812 C 249.039062 138.792969 249.359375 139.21875 249.65625 139.664062 C 249.953125 140.105469 250.226562 140.5625 250.476562 141.03125 C 250.730469 141.5 250.957031 141.980469 251.160156 142.472656 C 251.367188 142.964844 251.546875 143.464844 251.699219 143.976562 C 251.855469 144.484375 251.984375 145 252.089844 145.523438 C 252.191406 146.046875 252.269531 146.570312 252.324219 147.101562 C 252.375 147.632812 252.402344 148.164062 252.402344 148.695312 L 252.402344 233.230469 C 252.402344 233.765625 252.375 234.296875 252.324219 234.824219 C 252.269531 235.355469 252.191406 235.882812 252.089844 236.402344 C 251.984375 236.925781 251.855469 237.441406 251.699219 237.949219 C 251.546875 238.460938 251.367188 238.960938 251.160156 239.453125 C 250.957031 239.945312 250.730469 240.425781 250.476562 240.894531 C 250.226562 241.363281 249.953125 241.820312 249.65625 242.265625 C 249.359375 242.707031 249.039062 243.132812 248.703125 243.546875 C 248.363281 243.957031 248.003906 244.351562 247.628906 244.726562 C 247.25 245.105469 246.855469 245.460938 246.441406 245.796875 C 246.03125 246.136719 245.601562 246.453125 245.15625 246.75 C 244.714844 247.042969 244.257812 247.316406 243.785156 247.570312 C 243.316406 247.820312 242.832031 248.046875 242.339844 248.25 C 241.847656 248.457031 241.34375 248.632812 240.832031 248.789062 C 240.324219 248.945312 239.804688 249.074219 239.28125 249.175781 C 238.757812 249.28125 238.230469 249.359375 237.699219 249.410156 C 237.167969 249.460938 236.636719 249.488281 236.101562 249.488281 Z M 118.746094 138.941406 C 118.101562 138.941406 117.464844 139.003906 116.835938 139.128906 C 116.207031 139.253906 115.59375 139.4375 115 139.683594 C 114.410156 139.929688 113.84375 140.230469 113.3125 140.585938 C 112.777344 140.941406 112.28125 141.34375 111.828125 141.796875 C 111.375 142.25 110.96875 142.742188 110.613281 143.277344 C 110.253906 143.808594 109.953125 144.371094 109.707031 144.960938 C 109.464844 145.554688 109.277344 146.164062 109.152344 146.792969 C 109.027344 147.421875 108.964844 148.054688 108.964844 148.695312 L 108.964844 233.230469 C 108.964844 233.871094 109.027344 234.507812 109.152344 235.136719 C 109.277344 235.761719 109.464844 236.371094 109.707031 236.964844 C 109.953125 237.554688 110.253906 238.117188 110.613281 238.652344 C 110.96875 239.183594 111.375 239.675781 111.828125 240.128906 C 112.28125 240.582031 112.777344 240.988281 113.3125 241.34375 C 113.84375 241.699219 114.410156 242 115 242.242188 C 115.59375 242.488281 116.207031 242.671875 116.835938 242.796875 C 117.464844 242.921875 118.101562 242.984375 118.746094 242.984375 L 236.101562 242.984375 C 236.746094 242.984375 237.378906 242.921875 238.011719 242.796875 C 238.640625 242.671875 239.25 242.488281 239.84375 242.242188 C 240.4375 242 241 241.699219 241.535156 241.34375 C 242.070312 240.988281 242.5625 240.582031 243.015625 240.128906 C 243.472656 239.675781 243.878906 239.183594 244.234375 238.652344 C 244.589844 238.117188 244.890625 237.554688 245.136719 236.964844 C 245.382812 236.371094 245.570312 235.761719 245.695312 235.136719 C 245.820312 234.507812 245.882812 233.871094 245.882812 233.230469 L 245.882812 148.695312 C 245.882812 148.054688 245.820312 147.421875 245.695312 146.792969 C 245.570312 146.164062 245.382812 145.554688 245.136719 144.960938 C 244.890625 144.371094 244.589844 143.808594 244.234375 143.277344 C 243.878906 142.742188 243.472656 142.25 243.015625 141.796875 C 242.5625 141.34375 242.070312 140.941406 241.535156 140.585938 C 241 140.230469 240.4375 139.929688 239.84375 139.683594 C 239.25 139.4375 238.640625 139.253906 238.011719 139.128906 C 237.378906 139.003906 236.746094 138.941406 236.101562 138.941406 Z M 118.746094 138.941406 "/>
</g>
<g clip-path="url(#clip11)" clip-rule="nonzero">
<path style=" stroke:none;fill-rule:nonzero;fill:rgb(0%,0%,0%);fill-opacity:1;" d="M 223.0625 275.5 L 131.785156 275.5 C 131.351562 275.5 130.9375 275.417969 130.535156 275.253906 C 130.136719 275.085938 129.785156 274.851562 129.480469 274.546875 C 129.171875 274.242188 128.9375 273.890625 128.773438 273.492188 C 128.605469 273.09375 128.523438 272.679688 128.523438 272.25 C 128.523438 271.816406 128.605469 271.402344 128.773438 271.003906 C 128.9375 270.605469 129.171875 270.253906 129.480469 269.949219 C 129.785156 269.644531 130.136719 269.410156 130.535156 269.246094 C 130.9375 269.078125 131.351562 268.996094 131.785156 268.996094 L 223.0625 268.996094 C 223.496094 268.996094 223.910156 269.078125 224.308594 269.246094 C 224.710938 269.410156 225.0625 269.644531 225.367188 269.949219 C 225.671875 270.253906 225.910156 270.605469 226.074219 271.003906 C 226.238281 271.402344 226.324219 271.816406 226.324219 272.25 C 226.324219 272.679688 226.238281 273.09375 226.074219 273.492188 C 225.910156 273.890625 225.671875 274.242188 225.367188 274.546875 C 225.0625 274.851562 224.710938 275.085938 224.308594 275.253906 C 223.910156 275.417969 223.496094 275.5 223.0625 275.5 Z M 223.0625 275.5 "/>
</g>
<g clip-path="url(#clip12)" clip-rule="nonzero">
<path style=" stroke:none;fill-rule:nonzero;fill:rgb(0%,0%,0%);fill-opacity:1;" d="M 249.140625 223.476562 L 105.703125 223.476562 C 105.273438 223.476562 104.855469 223.394531 104.457031 223.230469 C 104.058594 223.066406 103.703125 222.832031 103.398438 222.523438 C 103.09375 222.21875 102.859375 221.867188 102.691406 221.46875 C 102.527344 221.070312 102.445312 220.65625 102.445312 220.226562 C 102.445312 219.796875 102.527344 219.378906 102.691406 218.980469 C 102.859375 218.582031 103.09375 218.230469 103.398438 217.925781 C 103.703125 217.621094 104.058594 217.386719 104.457031 217.222656 C 104.855469 217.058594 105.273438 216.976562 105.703125 216.976562 L 249.140625 216.976562 C 249.574219 216.976562 249.988281 217.058594 250.390625 217.222656 C 250.789062 217.386719 251.140625 217.621094 251.445312 217.925781 C 251.753906 218.230469 251.988281 218.582031 252.152344 218.980469 C 252.320312 219.378906 252.402344 219.796875 252.402344 220.226562 C 252.402344 220.65625 252.320312 221.070312 252.152344 221.46875 C 251.988281 221.867188 251.753906 222.21875 251.445312 222.523438 C 251.140625 222.832031 250.789062 223.066406 250.390625 223.230469 C 249.988281 223.394531 249.574219 223.476562 249.140625 223.476562 Z M 249.140625 223.476562 "/>
</g>
<g clip-path="url(#clip13)" clip-rule="nonzero">
<path style=" stroke:none;fill-rule:nonzero;fill:rgb(0%,0%,0%);fill-opacity:1;" d="M 177.421875 275.5 C 176.992188 275.5 176.574219 275.417969 176.175781 275.253906 C 175.777344 275.085938 175.421875 274.851562 175.117188 274.546875 C 174.8125 274.242188 174.578125 273.890625 174.410156 273.492188 C 174.246094 273.09375 174.164062 272.679688 174.164062 272.25 L 174.164062 246.238281 C 174.164062 245.804688 174.246094 245.390625 174.410156 244.992188 C 174.578125 244.59375 174.8125 244.242188 175.117188 243.9375 C 175.421875 243.632812 175.777344 243.398438 176.175781 243.234375 C 176.574219 243.070312 176.992188 242.984375 177.421875 242.984375 C 177.855469 242.984375 178.269531 243.070312 178.671875 243.234375 C 179.070312 243.398438 179.421875 243.632812 179.726562 243.9375 C 180.035156 244.242188 180.269531 244.59375 180.433594 244.992188 C 180.601562 245.390625 180.683594 245.804688 180.683594 246.238281 L 180.683594 272.25 C 180.683594 272.679688 180.601562 273.09375 180.433594 273.492188 C 180.269531 273.890625 180.035156 274.242188 179.726562 274.546875 C 179.421875 274.851562 179.070312 275.085938 178.671875 275.253906 C 178.269531 275.417969 177.855469 275.5 177.421875 275.5 Z M 177.421875 275.5 "/>
</g>
</g>
</svg>
